<?xml version="1.0" standalone="no"?>
<!DOCTYPE svg PUBLIC "-//W3C//DTD SVG 20010904//EN"
 "http://www.w3.org/TR/2001/REC-SVG-20010904/DTD/svg10.dtd">
<svg version="1.0" xmlns="http://www.w3.org/2000/svg"
 width="1024.000000pt" height="1024.000000pt" viewBox="0 0 1024.000000 1024.000000"
 preserveAspectRatio="xMidYMid meet">
<metadata>
Created by potrace 1.11, written by Peter Selinger 2001-2013
</metadata>
<g transform="translate(0.000000,1024.000000) scale(0.100000,-0.100000)"
fill="#000000" stroke="none">
<path d="M0 5120 l0 -5120 5120 0 5120 0 0 5120 0 5120 -5120 0 -5120 0 0
-5120z m9940 0 l0 -4820 -4820 0 -4820 0 0 4820 0 4820 4820 0 4820 0 0 -4820z"/>
<path d="M6692 8308 c-156 -24 -319 -109 -448 -234 -108 -104 -109 -111 -12
-210 85 -88 106 -93 159 -38 43 45 142 120 194 147 183 94 428 45 528 -107 80
-121 75 -265 -15 -426 -27 -49 -141 -207 -158 -220 -4 -3 -89 -104 -190 -225
-100 -121 -203 -244 -228 -273 -25 -29 -54 -65 -66 -80 -11 -15 -23 -29 -26
-32 -4 -4 -83 -96 -196 -230 -12 -14 -42 -48 -67 -77 -40 -46 -45 -56 -45
-102 0 -35 6 -59 18 -74 l18 -22 641 0 c578 0 643 1 663 16 19 15 21 27 23
118 1 86 -1 104 -17 121 -10 11 -29 20 -41 21 -12 0 -201 1 -419 1 l-397 1
122 141 c67 77 124 143 127 146 3 3 78 91 165 195 88 105 162 192 165 195 13
12 149 189 177 230 88 132 134 281 128 423 -6 170 -59 293 -174 408 -86 86
-176 136 -306 169 -86 22 -242 31 -323 18z"/>
<path d="M3030 8239 c-36 -34 -81 -75 -100 -92 -44 -37 -174 -155 -246 -223
-30 -28 -54 -60 -54 -71 0 -10 11 -50 23 -89 33 -96 47 -100 163 -44 83 40
172 80 178 80 2 0 3 -369 3 -821 0 -758 1 -821 17 -837 14 -14 39 -17 138 -19
112 -1 122 0 142 20 l21 22 -1 1045 c-1 575 -2 1048 -3 1052 0 4 -8 14 -17 22
-12 12 -37 16 -107 16 l-92 0 -65 -61z"/>
<path d="M3043 4266 c-28 -6 -55 -14 -59 -18 -4 -5 -14 -8 -22 -8 -22 0 -141
-59 -204 -101 -31 -22 -84 -64 -117 -95 -86 -80 -85 -98 16 -186 42 -38 85
-68 95 -68 11 0 45 24 76 54 74 69 143 111 217 131 268 69 499 -98 483 -349
-9 -140 -92 -240 -239 -290 -70 -24 -104 -28 -267 -30 -124 -2 -155 -5 -168
-18 -13 -12 -16 -38 -17 -117 0 -142 -2 -141 171 -141 258 0 396 -45 495 -160
80 -94 101 -246 47 -353 -65 -130 -219 -209 -392 -202 -122 5 -292 83 -388
177 -62 61 -68 60 -174 -36 -86 -77 -92 -95 -48 -147 107 -130 301 -236 467
-255 28 -4 53 -8 57 -10 10 -6 183 -5 238 1 238 26 443 150 534 324 50 95 68
170 69 275 0 155 -57 280 -181 396 -88 82 -89 83 -151 115 -28 15 -51 28 -51
30 0 2 24 18 52 36 118 72 224 215 259 350 36 136 7 309 -70 425 -53 78 -57
83 -124 137 -74 60 -187 112 -287 132 -60 12 -262 13 -317 1z"/>
<path d="M7141 4253 c-12 -8 -45 -44 -75 -81 -30 -37 -107 -132 -171 -212 -64
-80 -132 -163 -150 -185 -28 -33 -235 -288 -388 -480 -18 -21 -44 -53 -58 -70
-14 -16 -100 -123 -191 -236 l-166 -207 2 -109 c1 -88 4 -113 18 -126 15 -16
64 -17 551 -17 l534 0 0 -222 c1 -275 -10 -258 163 -255 106 2 121 4 135 22
12 17 15 54 13 232 -1 117 1 216 6 220 4 4 68 8 143 8 171 1 173 2 170 134 -2
57 -7 94 -16 105 -11 13 -37 16 -157 16 -142 0 -144 0 -145 23 0 12 -1 335 -1
716 l-1 695 -23 23 c-20 20 -32 23 -98 22 -47 -1 -82 -6 -95 -16z m-86 -1451
c-4 -4 -680 -6 -744 -3 -9 1 -4 13 15 39 15 20 30 39 34 42 3 3 25 30 50 60
25 30 47 57 50 60 3 3 23 28 45 55 22 28 44 55 50 61 5 6 120 146 255 311
l245 300 3 -460 c1 -253 0 -462 -3 -465z"/>
</g>
</svg>
